# xmcd CD database file
#
# Track frame offsets:
#	150
#	22292
#	47195
#	69340
#
# Disc length: 1253 seconds
#
# Revision: 4
# Processed by: cddbd v1.5.2PL0 Copyright (c) Steve Scherf et al.
# Submitted via: CDex 1.70beta3
#
DISCID=3404e304
DTITLE=FictionJunction YUUKA - Silly-Go-Round
DYEAR=2006
DGENRE=Anime
TTITLE0=Silly-Go-Round
TTITLE1=angel gate
TTITLE2=Silly-Go-Round(without vocal)
TTITLE3=angel gate(without vocal)
EXTD=YEAR: 2006
EXTT0=
EXTT1=
EXTT2=
EXTT3=
PLAYORDER=
